<!DOCTYPE svg PUBLIC "-//W3C//DTD SVG 1.1//EN" "http://www.w3.org/Graphics/SVG/1.1/DTD/svg11.dtd">

<!-- Uploaded to: SVG Repo, www.svgrepo.com, Transformed by: SVG Repo Mixer Tools -->
<svg width="64px" height="64px" viewBox="0 0 24 24" xmlns="http://www.w3.org/2000/svg" fill="#000000" stroke="#000000" stroke-width="0.144">

<g id="SVGRepo_bgCarrier" stroke-width="0"/>

<g id="SVGRepo_tracerCarrier" stroke-linecap="round" stroke-linejoin="round"/>

<g id="SVGRepo_iconCarrier">

<path d="M16.526 14.696L20.481 21h-1.18l-3.477-5.542L10.718 21h-1.36l5.914-6.42-3.5-5.58h1.181l3.022 4.817L20.413 9h1.36zM5.383 10H9V9H5.536l.535-3.498a3.01 3.01 0 0 1 3.743-2.455l.527.139.254-.967-.526-.139a4.01 4.01 0 0 0-4.986 3.271L4.525 9H2v1h2.372L2.688 21H3.7z"/>

<path fill="none" d="M0 0h24v24H0z"/>

</g>

</svg>